<?xml version="1.0" standalone="no"?><!DOCTYPE svg PUBLIC "-//W3C//DTD SVG 1.1//EN" "http://www.w3.org/Graphics/SVG/1.1/DTD/svg11.dtd"><svg t="1512980329146" class="icon" style="" viewBox="0 0 1024 1024" version="1.1" xmlns="http://www.w3.org/2000/svg" p-id="1708" xmlns:xlink="http://www.w3.org/1999/xlink" width="32" height="32"><defs><style type="text/css"></style></defs><path d="M961.9196288 174.09392427c0-62.18208853-50.40888213-112.5909696-112.5909696-112.5909696l-675.32751467 0c-62.18208853 0-112.5909696 50.40888213-112.5909696 112.5909696l0 675.32751466c0 62.18208853 50.40888213 112.5909696 112.5909696 112.5909696l675.32751467 0c62.18208853 0 112.5909696-50.40888213 112.5909696-112.5909696L961.9196288 174.09392427zM793.82453013 286.35743573l-113.518768 0 0 112.42724054 113.518768 0 0 112.42724053-113.518768 0 0 338.37325013-112.42724053 0 0-338.37325013-112.42724053 0 0-112.42724053 112.42724053 0L567.8785216 307.9216352l0-56.2954848c0-37.7952 41.63082453-77.69595627 84.03772587-77.69595627l56.2954848 0 85.61279786 0L793.82453013 286.35743573z" p-id="1709" fill="#a2a5ab"></path></svg>