<?xml version="1.0" standalone="no"?><!DOCTYPE svg PUBLIC "-//W3C//DTD SVG 1.1//EN" "http://www.w3.org/Graphics/SVG/1.1/DTD/svg11.dtd"><svg t="1512980626789" class="icon" style="" viewBox="0 0 1028 1024" version="1.1" xmlns="http://www.w3.org/2000/svg" p-id="2012" xmlns:xlink="http://www.w3.org/1999/xlink" width="32.125" height="32"><defs><style type="text/css"></style></defs><path d="M329.00598781 820.50299375q0-8.62275469 8.62275469-8.62275469t8.62275469 8.62275469-8.62275469 8.62275469-8.62275469-8.62275469zM289.72455126 810.92215531q0-8.62275469 8.62275468-8.62275468 9.58083844 0 9.58083843 8.62275468 0 9.58083844-9.58083843 9.58083844-8.62275469 0-8.6227547-9.58083844zM510.0838325 32q99.64071844 0 187.30538906 37.84431094t152.81437125 102.99401156 102.99401157 152.81437125 37.84431092 187.30538906q0 77.60479031-23.47305374 148.98203625t-65.14970062 130.29940125-100.11976031 103.47305344-127.42515 69.4610775q-10.53892219 1.9161675-23.95209563 0.95808375t-16.28742469-17.24550937q-1.9161675-11.49700594-3.35329312-30.65868282t-1.9161675-39.2814375-0.95808375-38.32335375-0.47904188-26.82634687-3.35329312-22.03592812-7.66467094-25.86826313-8.62275469-22.51496999-6.22754531-12.93413157q-1.9161675-1.9161675 13.41317345-4.31137688t38.80239561-9.10179656 51.25748532-19.16167688 51.73652718-33.05389218 39.76047938-50.77844344 15.80838281-73.29341344q0-65.14970063-7.66467094-101.55688594t-16.28742468-54.61077843q-10.53892219-21.07784438-23.95209563-26.82634689 5.74850343-31.61676656 8.62275469-57.48502968 1.9161675-22.03592812 0.47904187-42.15568875t-11.97604781-25.86826312q-10.53892219-4.79041875-31.13772468 1.9161675t-42.63473063 17.24550938q-24.91017938 12.45508969-53.65269469 30.65868281-14.37125719-4.79041875-31.61676656-8.6227547-15.32934094-3.832335-36.40718531-6.70658718t-46.9461075-2.87425125-49.34131782 2.87425125-41.67664687 5.74850343q-21.07784438 3.832335-39.2814375 8.6227547-28.74251531-16.28742469-53.65269469-27.78443157-22.03592812-10.53892219-43.1137725-17.24550937t-30.65868281-2.87425124q-10.53892219 4.79041875-12.93413156 24.43113749t-1.43712563 42.63473062q0.95808375 26.82634687 4.79041875 59.40119719-13.41317344 14.37125719-23.95209562 34.49101781-9.58083844 17.24550937-16.7664675 42.15568875t-7.18562907 55.56886219q0 44.07185625 9.10179657 77.60479031t24.4311375 57.96407157 34.97005968 41.19760499 39.76047938 27.30538969q47.90419125 24.91017938 109.22155687 28.74251532-7.66467094 8.62275469-13.41317343 16.28742468-4.79041875 6.70658719-8.62275469 12.93413157t-3.832335 9.10179656-0.47904188 7.18562905-1.43712562 9.10179657l-1.9161675 9.58083844q-9.58083844 3.832335-20.11976063 6.70658719-8.62275469 2.87425125-19.16167688 4.79041875t-21.07784437 1.9161675-25.86826311-11.01796406-31.1377247-25.38922125-28.74251531-28.26347344-18.682635-19.64071876q-5.74850343-4.79041875-15.32934094-8.1437128t-19.16167687-5.26946063-17.24550938-2.39520938-10.53892219 0.47904188q-5.74850343 2.87425125-8.62275469 8.14371281t4.79041876 8.14371282q3.832335 1.9161675 11.01796406 7.18562906t14.85029907 12.45508969 14.37125718 14.37125718 9.58083844 11.97604782 8.62275468 21.07784437 18.68263501 33.53293407 34.49101781 30.65868281 57.96407156 13.41317343q24.91017938 0 37.84431094-0.47904186t19.64071875-1.43712564l0 73.77245532q0 5.74850343-1.43712563 12.93413156t-5.26946063 12.45508969-10.53892218 7.66467093-17.24550938-0.47904186q-1.9161675-0.95808375-5.74850343-0.95808376-69.94011938-24.91017938-128.38323375-69.4610775t-101.07784407-103.95209625-66.58682625-130.77844313-23.95209562-149.94012q0-99.64071844 37.84431094-187.30538906t102.99401156-152.81437125 153.29341312-102.99401156 187.78443094-37.84431094zM388.40718594 855.95209625q3.832335 0.95808375 5.74850343 1.9161675 4.79041875 2.87425125-5.74850343 3.832335l0-5.74850344zM369.24550906 813.7964075q0-9.58083844 8.62275469-9.58083844t8.62275469 9.58083844q0 8.62275469-8.62275469 8.62275469t-8.62275469-8.62275469zM198.70658656 717.98802405q0-5.74850343 6.70658719-5.74850342t6.70658719 5.74850344q0 6.70658719-6.70658719 6.70658718t-6.70658719-6.70658718zM262.89820343 790.80239563q0-8.62275469 8.6227547-8.62275469t8.62275468 8.62275469q0 9.58083844-8.62275468 9.58083843t-8.62275468-9.58083843zM226.49101812 732.35928125q6.70658719 0 6.70658719 6.70658719t-6.70658718 6.70658718-6.70658719-6.70658718 6.70658719-6.70658719zM236.07185657 763.97604781q0-8.62275469 8.62275468-8.62275469t8.62275469 8.62275469q0 9.58083844-8.62275469 9.58083844t-8.62275468-9.58083844z" p-id="2013" fill="#a2a5ab"></path></svg>