<?xml version="1.0" standalone="no"?><!DOCTYPE svg PUBLIC "-//W3C//DTD SVG 1.1//EN" "http://www.w3.org/Graphics/SVG/1.1/DTD/svg11.dtd"><svg t="1512980298422" class="icon" style="" viewBox="0 0 1024 1024" version="1.1" xmlns="http://www.w3.org/2000/svg" p-id="1554" xmlns:xlink="http://www.w3.org/1999/xlink" width="32" height="32"><defs><style type="text/css"></style></defs><path d="M869.834375 90.125C886.625 90.125 901.475 95.8625 914.46875 107.253125 927.378125 118.728125 933.875 132.81875 933.875 149.609375l0 722.5875c0 16.790625-6.496875 30.88125-19.40625 42.271875C901.475 925.859375 886.625 931.596875 869.834375 931.596875L151.8875 931.596875c-16.790625 0-31.21875-5.7375-43.453125-17.128125C96.2 902.99375 90.125 888.9875 90.125 872.1125L90.125 149.609375c0-16.790625 6.075-30.88125 18.309375-42.271875S135.096875 90.125 151.8875 90.125L869.834375 90.125zM277.60625 350.759375c19.828125 0 36.95625-7.171875 51.46875-21.76875 14.5125-14.5125 21.76875-31.640625 21.76875-51.46875 0-19.74375-7.25625-36.95625-21.76875-51.46875C314.5625 211.709375 297.434375 204.453125 277.60625 204.453125c-19.828125 0-36.95625 7.25625-51.46875 21.684375-14.5125 14.5125-21.76875 31.640625-21.76875 51.46875 0 21.346875 6.834375 38.896875 20.5875 52.565625C238.79375 343.925 256.259375 350.759375 277.60625 350.759375zM339.36875 808.071875L339.36875 405.6875 215.928125 405.6875l0 402.46875L339.36875 808.15625zM808.071875 808.071875L808.071875 586.334375c0-60.91875-10.29375-107.83125-30.88125-140.653125C756.6875 412.94375 717.36875 396.490625 659.4875 396.490625c-57.965625 0-97.5375 21.346875-118.884375 64.040625L538.325 460.53125 538.325 405.6875 419.35625 405.6875l0 402.46875 123.440625 0L542.796875 609.2c0-68.596875 25.14375-102.9375 75.43125-102.9375 19.828125 0 34.678125 6.496875 44.55 19.40625 9.871875 12.99375 15.609375 25.14375 17.128125 36.61875s2.278125 27.84375 2.278125 49.190625l0 196.678125L808.071875 808.15625z" p-id="1555" fill="#a2a5ab"></path></svg>