<?xml version="1.0" standalone="no"?><!DOCTYPE svg PUBLIC "-//W3C//DTD SVG 1.1//EN" "http://www.w3.org/Graphics/SVG/1.1/DTD/svg11.dtd"><svg t="1512980270464" class="icon" style="" viewBox="0 0 1024 1024" version="1.1" xmlns="http://www.w3.org/2000/svg" p-id="1402" xmlns:xlink="http://www.w3.org/1999/xlink" width="32" height="32"><defs><style type="text/css"></style></defs><path d="M991.8190625 214.6446875c-35.341875 15.2446875-73.681875 26.1965625-113.3165625 30.4303125 40.8253125-24.33375 71.8734375-62.6690625 86.50125-108.345-37.771875 22.52625-80.4 38.9578125-124.8346875 47.4834375-35.91-38.3953125-87.06-62.1075-143.6878125-62.1075-109.0284375 0-196.71 88.3040625-196.71 196.65 0 15.245625 1.8628125 30.485625 4.85625 45.1134375-163.22625-8.4721875-308.7759375-86.4421875-405.6075-205.854375-17.049375 29.191875-26.82 62.72625-26.82 99.3121875 0 68.203125 34.723125 128.446875 87.6815625 163.78875-32.2340625-1.239375-62.7253125-10.3846875-88.9228125-24.9525v2.42625c0 95.5303125 67.580625 174.7453125 157.7475 193.0378125-16.4315625 4.2346875-34.1025 6.66-51.7734375 6.66-12.759375 0-24.9571875-1.1859375-37.0940625-3.04875 24.9571875 77.9746875 97.4484375 134.6034375 183.8896875 136.46625-67.6396875 52.9575-152.2734375 84.01125-244.2440625 84.01125-16.4296875 0-31.6753125-0.5625-47.4834375-2.37 87.118125 56.00625 190.60875 88.3040625 302.116875 88.3040625 361.74 0 559.689375-299.6315625 559.689375-559.6340625 0-8.5809375 0-17.0475-0.568125-25.6303125 38.2809375-28.005 71.7646875-62.7834375 98.58-101.74125z" p-id="1403" fill="#a2a5ab"></path></svg>