<svg id="Layer_1" xmlns="http://www.w3.org/2000/svg" viewBox="-275 367 60 60"><style>.st0{fill:#CAAD41;}</style><path class="st0" d="M-240.2 388.4c-3.7 1.2-6.3 4.6-6.3 8.6s2.7 7.5 6.3 8.6c1.7-2.4 2.7-5.4 2.7-8.6s-1-6.2-2.7-8.6zm-15.6 8.6c0-5.9 2.8-11.2 7.1-14.5-1.2-.3-2.5-.5-3.8-.5-8.3 0-15 6.7-15 15s6.7 15 15 15c1.3 0 2.6-.2 3.8-.5-4.3-3.3-7.1-8.6-7.1-14.5z"/><path class="st0" d="M-226 406.6c2.2-2.6 3.5-6 3.5-9.6 0-8.3-6.7-15-15-15s-15 6.7-15 15 6.7 15 15 15c3.7 0 7-1.3 9.6-3.5l2.7 2.7c.5.5 1.3.5 1.8 0s.5-1.3 0-1.8l-2.6-2.8zm-11.5 2.8c-6.8 0-12.4-5.6-12.4-12.4s5.6-12.4 12.4-12.4 12.4 5.6 12.4 12.4c0 2.9-1 5.7-2.8 7.8l-2.8-2.8c-.5-.5-1.3-.5-1.8 0s-.5 1.3 0 1.8l2.8 2.8c-2.1 1.8-4.9 2.8-7.8 2.8z"/></svg>