<svg id="图层_1" data-name="图层 1" xmlns="http://www.w3.org/2000/svg" viewBox="0 0 75.43 44"><defs><style>.cls-1{fill:#da1841;}.cls-2{fill:#f9f9f9;}.cls-3{fill:#fff;}</style></defs><title>cn</title><path class="cls-1" d="M0,0H75.43V22H0Z"/><path class="cls-2" d="M0,22H75.43V44H0Z"/><path class="cls-3" d="M22.67,11a8.26,8.26,0,1,1,0-.05V11"/><path class="cls-1" d="M25.24,11a7.82,7.82,0,1,1-7.82-7.82h0A7.82,7.82,0,0,1,25.24,11"/><path class="cls-3" d="M15.39,11.2l-1.13-.86-1.12.86.44-1.39L12.44,9h1.4l.42-1.4L14.69,9h1.39L15,9.81Zm8.81,0-1.12-.86L22,11.2l.44-1.39L21.27,9h1.38l.43-1.4L23.51,9H24.9l-1.12.86ZM19.81,7.93l-1.13-.87-1.12.87L18,6.54l-1.12-.85h1.39l.43-1.4.43,1.4h1.38l-1.12.86ZM17,16.44l-1.12-.86-1.13.86.44-1.4-1.14-.85h1.4l.43-1.39.42,1.39h1.39L16.6,15Zm5.51,0-1.11-.86-1.13.86.43-1.4-1.12-.85H21l.44-1.39.42,1.39h1.39L22.13,15Z"/></svg>