<svg xmlns="http://www.w3.org/2000/svg" viewBox="0 0 430 220"><defs><style>.cls-1,.cls-4,.cls-7{fill:none;}.cls-1{stroke:#95b0ca;}.cls-2,.cls-3,.cls-5,.cls-6{isolation:isolate;}.cls-3{font-size:10px;fill:#95b0ca;}.cls-3,.cls-5{font-family:PingFangSC-Medium-GBpc-EUC-H, PingFang SC;}.cls-4{stroke:#a1a3a7;}.cls-5,.cls-6{font-size:8px;}.cls-5,.cls-6,.cls-8{fill:#0cf;}.cls-6{font-family:PingFangSC-Regular-GBpc-EUC-H, PingFang SC;}.cls-7{stroke:#0cf;}</style></defs><title>资源 1</title><g id="图层_2" data-name="图层 2"><g id="图层_1-2" data-name="图层 1"><g id="Page-2"><g id="智能合约虚拟机的功能组成"><g id="隔离后"><rect id="Rectangle-3" class="cls-1" x="0.5" y="0.5" width="429" height="219"/><g id="Contract-VM" class="cls-2"><text class="cls-3" transform="translate(185.96 15)">Contract VM</text></g><g id="Group-17"><rect id="Rectangle-3-2" data-name="Rectangle-3" class="cls-4" x="25.5" y="23.5" width="179" height="187"/><g id="Contract-1" class="cls-2"><text class="cls-5" transform="translate(96.04 38)">Contract 1</text></g><g id="Group-6-Copy-6"><rect id="Rectangle-5" class="cls-1" x="75.5" y="47.5" width="79" height="37"/><g id="Contract-Bytecode" class="cls-2"><text class="cls-6" transform="translate(80.02 68)">Contract Bytecode</text></g></g><g id="Group-6-Copy-17"><rect id="Rectangle-5-2" data-name="Rectangle-5" class="cls-1" x="75.5" y="104.5" width="79" height="37"/><g id="Contract-Storage-Dat" class="cls-2"><text class="cls-6" transform="translate(82.88 120)">Contract Storage </text><text class="cls-6" transform="translate(96.82 131)">Datastore</text></g></g><g id="Group-6-Copy-18"><rect id="Rectangle-5-3" data-name="Rectangle-5" class="cls-1" x="75.5" y="162.5" width="79" height="37"/><g id="Contract-storage-cha" class="cls-2"><text class="cls-6" transform="translate(83.39 177)">Contract storage </text><text class="cls-6" transform="translate(87.72 188)">change history</text></g></g><g id="Group-16"><path id="Path-3" class="cls-7" d="M114.33,161.94V149.5"/><polygon id="Rectangle-7" class="cls-8" points="114.54 145 117 150 112 150 114.54 145"/></g><g id="Group-16-Copy"><path id="Path-3-2" data-name="Path-3" class="cls-7" d="M114.33,85.06V97.5"/><polygon id="Rectangle-7-2" data-name="Rectangle-7" class="cls-8" points="114.54 102 117 97 112 97 114.54 102"/></g></g><g id="Group-17-Copy"><rect id="Rectangle-3-3" data-name="Rectangle-3" class="cls-4" x="225.5" y="23.5" width="179" height="187"/><g id="Contract-1-2" data-name="Contract-1" class="cls-2"><text class="cls-5" transform="translate(296.04 38)">Contract 1</text></g><g id="Group-6-Copy-6-2" data-name="Group-6-Copy-6"><rect id="Rectangle-5-4" data-name="Rectangle-5" class="cls-1" x="275.5" y="47.5" width="79" height="37"/><g id="Contract-Bytecode-2" data-name="Contract-Bytecode" class="cls-2"><text class="cls-6" transform="translate(280.02 68)">Contract Bytecode</text></g></g><g id="Group-6-Copy-17-2" data-name="Group-6-Copy-17"><rect id="Rectangle-5-5" data-name="Rectangle-5" class="cls-1" x="275.5" y="104.5" width="79" height="37"/><g id="Contract-Storage-Dat-2" data-name="Contract-Storage-Dat" class="cls-2"><text class="cls-6" transform="translate(282.88 120)">Contract Storage </text><text class="cls-6" transform="translate(296.82 131)">Datastore</text></g></g><g id="Group-6-Copy-18-2" data-name="Group-6-Copy-18"><rect id="Rectangle-5-6" data-name="Rectangle-5" class="cls-1" x="275.5" y="162.5" width="79" height="37"/><g id="Contract-storage-cha-2" data-name="Contract-storage-cha" class="cls-2"><text class="cls-6" transform="translate(283.39 177)">Contract storage </text><text class="cls-6" transform="translate(287.72 188)">change history</text></g></g><g id="Group-16-2" data-name="Group-16"><path id="Path-3-3" data-name="Path-3" class="cls-7" d="M314.33,161.94V149.5"/><polygon id="Rectangle-7-3" data-name="Rectangle-7" class="cls-8" points="314.54 145 317 150 312 150 314.54 145"/></g><g id="Group-16-Copy-2" data-name="Group-16-Copy"><path id="Path-3-4" data-name="Path-3" class="cls-7" d="M314.33,85.06V97.5"/><polygon id="Rectangle-7-4" data-name="Rectangle-7" class="cls-8" points="314.54 102 317 97 312 97 314.54 102"/></g></g></g></g></g></g></g></svg>