<svg xmlns="http://www.w3.org/2000/svg" viewBox="0 0 430.57 388"><defs><style>.cls-1,.cls-4{fill:none;}.cls-1{stroke:#95b0ca;}.cls-2,.cls-3,.cls-6{isolation:isolate;}.cls-3,.cls-6{font-size:12px;font-family:PingFangSC-Medium-GBpc-EUC-H, PingFang SC;}.cls-3{fill:#95b0ca;}.cls-4{stroke:#0cf;}.cls-5,.cls-6{fill:#0cf;}</style></defs><title>资源 1</title><g id="图层_2" data-name="图层 2"><g id="图层_1-2" data-name="图层 1"><g id="Page-2"><g id="闪电网络特性"><g id="Group-23"><g id="Group-19"><rect id="Rectangle-8" class="cls-1" x="135.82" y="55.5" width="145" height="35"/><g id="Alice-Sig-Bob-Sig" class="cls-2"><text class="cls-3" transform="translate(158.93 78)">Alice Sig Bob Sig</text></g></g><g id="Group-19-Copy-5"><rect id="Rectangle-8-2" data-name="Rectangle-8" class="cls-1" x="39.82" y="0.5" width="145" height="19"/><g id="Alice-0.5" class="cls-2"><text class="cls-3" transform="translate(87.59 14)">Alice 0.5</text></g></g><g id="Group-19-Copy-6"><rect id="Rectangle-8-3" data-name="Rectangle-8" class="cls-1" x="225.82" y="0.5" width="145" height="19"/><g id="Bob-0.5" class="cls-2"><text class="cls-3" transform="translate(276.2 14)">Bob 0.5</text></g></g><g id="Group-19-Copy"><rect id="Rectangle-8-4" data-name="Rectangle-8" class="cls-1" x="135.82" y="94.5" width="145" height="35"/><g id="Alice-_-Bob-2_2-Mult" data-name="Alice-&amp;-Bob-2/2-Mult" class="cls-2"><text class="cls-3" transform="translate(146.33 117)">Alice &amp; Bob 2/2 Multi</text></g></g><g id="Group-21-Copy"><polyline id="Path-4" class="cls-4" points="389.3 244.37 430.07 244.37 430.07 330.96 380.25 330.96"/><polygon id="Path-5" class="cls-5" points="372.32 330.79 380.25 326.73 380.25 335.46 372.32 330.79"/></g><g id="Group-20"><g id="Group-19-Copy-2"><rect id="Rectangle-8-5" data-name="Rectangle-8" class="cls-1" x="24.82" y="176.5" width="145" height="35"/><g id="_Alice-Sig_-Bob-Sig" data-name="&lt;Alice-Sig&gt;-Bob-Sig" class="cls-2"><text class="cls-3" transform="translate(40.67 199)">&lt;Alice Sig&gt; Bob Sig</text></g></g><g id="C1a" class="cls-2"><text class="cls-6" transform="translate(24.32 172)">C1a</text></g><g id="Group-19-Copy-3"><rect id="Rectangle-8-6" data-name="Rectangle-8" class="cls-1" x="24.82" y="215.5" width="145" height="53"/><g id="_0.Alice2-_-Bob-0.5-1" data-name="0.Alice2-&amp;-Bob-0.5-1" class="cls-2"><text class="cls-3" transform="translate(40 238)">0.</text><text class="cls-6" transform="translate(50.47 238)">Alice2</text><text class="cls-3" transform="translate(85.47 238)">&amp; Bob 0.5</text><text class="cls-3" transform="translate(39.15 255)">1.Bob 0.5</text></g></g></g><g id="Commitment-TX" class="cls-2"><text class="cls-3" transform="translate(10.32 260.68) rotate(-90)">Commitment TX</text></g><g id="Funding-TX" class="cls-2"><text class="cls-3" transform="translate(10.32 123.81) rotate(-90)">Funding TX</text></g><g id="Group-20-Copy-2"><g id="Group-19-Copy-2-2" data-name="Group-19-Copy-2"><rect id="Rectangle-8-7" data-name="Rectangle-8" class="cls-1" x="42.82" y="301.5" width="145" height="57"/><g id="_Alice2-Sig_-Bob-Sig" data-name="&lt;Alice2-Sig&gt;-Bob-Sig" class="cls-2"><text class="cls-3" transform="translate(55.07 324)">&lt;Alice2 Sig&gt; Bob Sig</text></g><g id="seq_1000" data-name="seq=1000" class="cls-2"><text class="cls-3" transform="translate(88.35 346)">seq=1000</text></g></g><g id="Group-19-Copy-4"><rect id="Rectangle-8-8" data-name="Rectangle-8" class="cls-1" x="42.82" y="358.5" width="145" height="29"/><g id="_0.Alice-0.5" data-name="0.Alice-0.5" class="cls-2"><text class="cls-3" transform="translate(59.38 377)">0.Alice 0.5</text></g></g><g id="RD1a" class="cls-2"><text class="cls-6" transform="translate(42.32 297)">RD1a</text></g></g><g id="Group-20-Copy-3"><g id="Group-19-Copy-2-3" data-name="Group-19-Copy-2"><rect id="Rectangle-8-9" data-name="Rectangle-8" class="cls-1" x="225.82" y="301.5" width="145" height="57"/><g id="Alice-Sig-_Bob2-Sig_" data-name="Alice-Sig-&lt;Bob2-Sig&gt;" class="cls-2"><text class="cls-3" transform="translate(238.07 324)">Alice Sig &lt;Bob2 Sig&gt;</text></g><g id="seq_1000-2" data-name="seq=1000" class="cls-2"><text class="cls-3" transform="translate(271.35 346)">seq=1000</text></g></g><g id="Group-19-Copy-4-2" data-name="Group-19-Copy-4"><rect id="Rectangle-8-10" data-name="Rectangle-8" class="cls-1" x="225.82" y="358.5" width="145" height="29"/><g id="_0.Bob-0.5" data-name="0.Bob-0.5" class="cls-2"><text class="cls-3" transform="translate(244.99 377)">0.Bob 0.5</text></g></g><g id="RD1b" class="cls-2"><text class="cls-6" transform="translate(225.32 297)">RD1b</text></g></g><g id="Group-20-Copy"><g id="Group-19-Copy-2-4" data-name="Group-19-Copy-2"><rect id="Rectangle-8-11" data-name="Rectangle-8" class="cls-1" x="241.82" y="176.5" width="145" height="35"/><g id="Alice-Sig-_Bob-Sig_" data-name="Alice-Sig-&lt;Bob-Sig&gt;" class="cls-2"><text class="cls-3" transform="translate(257.67 199)">Alice Sig &lt;Bob Sig&gt;</text></g></g><g id="C1b" class="cls-2"><text class="cls-6" transform="translate(366.48 172)">C1b</text></g><g id="Group-19-Copy-3-2" data-name="Group-19-Copy-3"><rect id="Rectangle-8-12" data-name="Rectangle-8" class="cls-1" x="241.82" y="215.5" width="145" height="53"/><g id="_0.Alice-_-Bob2-0.5-1" data-name="0.Alice-&amp;-Bob2-0.5-1" class="cls-2"><text class="cls-3" transform="translate(257 238)">0.Alice &amp; </text><text class="cls-6" transform="translate(312.2 238)">Bob2</text><text class="cls-3" transform="translate(341.99 238)">0.5</text><text class="cls-3" transform="translate(257.54 255)">1.Alice 0.5</text></g></g></g><g id="Group-21"><polyline id="Path-4-2" data-name="Path-4" class="cls-4" points="172.3 243.37 213.07 243.37 213.07 329.96 192.68 329.96"/><polygon id="Path-5-2" data-name="Path-5" class="cls-5" points="191.32 329.79 199.25 325.73 199.25 334.46 191.32 329.79"/></g><g id="Group-21-Copy-2" data-name="Group-21-Copy"><path id="Path-4-3" data-name="Path-4" class="cls-4" d="M228.87,130.37l81.84,33.47"/><polygon id="Path-5-3" data-name="Path-5" class="cls-5" points="317.88 167.22 308.99 167.69 312.54 159.72 317.88 167.22"/></g><g id="Group-21-Copy-2-2" data-name="Group-21-Copy-2"><path id="Path-4-4" data-name="Path-4" class="cls-4" d="M183.45,130.37l-81.84,33.47"/><polygon id="Path-5-4" data-name="Path-5" class="cls-5" points="94.44 167.22 103.33 167.69 99.78 159.72 94.44 167.22"/></g><g id="Group-22"><g id="Group-21-Copy-3" data-name="Group-21-Copy"><path id="Path-4-5" data-name="Path-4" class="cls-4" d="M306.82,22.5,236.61,47.84"/><polygon id="Path-5-5" data-name="Path-5" class="cls-5" points="229.44 51.22 238.33 51.7 234.78 43.72 229.44 51.22"/></g></g><g id="Group-22-2" data-name="Group-22"><g id="Group-21-Copy-4" data-name="Group-21-Copy"><path id="Path-4-6" data-name="Path-4" class="cls-4" d="M107.82,22.5,178,47.84"/><polygon id="Path-5-6" data-name="Path-5" class="cls-5" points="185.2 51.22 176.31 51.7 179.86 43.72 185.2 51.22"/></g></g></g></g></g></g></g></svg>