<svg xmlns="http://www.w3.org/2000/svg" viewBox="0 0 184 211"><defs><style>.cls-1,.cls-6{fill:none;}.cls-1{stroke:#a1a3a7;}.cls-2,.cls-3,.cls-5{isolation:isolate;}.cls-3,.cls-5{font-size:8px;}.cls-3,.cls-4,.cls-5{fill:#0cf;}.cls-3{font-family:PingFangSC-Medium-GBpc-EUC-H, PingFang SC;}.cls-5{font-family:PingFangSC-Regular-GBpc-EUC-H, PingFang SC;}.cls-6{stroke:#95b0ca;}</style></defs><title>资源 1</title><g id="图层_2" data-name="图层 2"><g id="图层_1-2" data-name="图层 1"><g id="隔离前"><rect id="Rectangle-3" class="cls-1" x="0.5" y="0.5" width="183" height="210"/><g id="_1MB" data-name="1MB" class="cls-2"><text class="cls-3" transform="translate(84.03 205)">1MB</text></g><g id="Group-15"><g id="Group"><polygon id="Path" class="cls-4" points="89.08 135.43 89.08 137.19 86.56 137.19 86.56 136.32 88.24 136.32 88.24 135.47 85.71 135.47 85.71 138.05 89.08 138.05 89.08 138.91 84.87 138.91 84.87 134.6 89.08 134.6 89.08 135.43"/><rect id="Rectangle" class="cls-4" x="87" y="139" width="1" height="1.5"/><rect id="Rectangle-Copy" class="cls-4" x="87.5" y="140" width="1" height="1"/></g><rect id="Rectangle-6" class="cls-1" x="15.5" y="127.5" width="146" height="18"/></g><g id="Group-11"><g id="Group-6"><rect id="Rectangle-5" class="cls-1" x="15.5" y="30.5" width="73" height="18"/><g id="Txln" class="cls-2"><text class="cls-5" transform="translate(44.31 42)">Txln</text></g></g><g id="Group-6-Copy"><rect id="Rectangle-5-2" data-name="Rectangle-5" class="cls-1" x="88.5" y="30.5" width="73" height="18"/><g id="TxOut" class="cls-2"><text class="cls-5" transform="translate(113.76 42)">TxOut</text></g></g><g id="Group-6-Copy-2"><rect id="Rectangle-5-3" data-name="Rectangle-5" class="cls-1" x="15.5" y="48.5" width="73" height="18"/><g id="Signature" class="cls-2"><text class="cls-5" transform="translate(34.27 60)">Signature</text></g></g></g><g id="Group-13"><g id="Group-6-Copy-3"><rect id="Rectangle-5-4" data-name="Rectangle-5" class="cls-1" x="15.5" y="76.5" width="73" height="18"/><g id="Txln-2" data-name="Txln" class="cls-2"><text class="cls-5" transform="translate(44.31 88)">Txln</text></g></g><g id="Group-6-Copy-4"><rect id="Rectangle-5-5" data-name="Rectangle-5" class="cls-1" x="88.5" y="76.5" width="73" height="18"/><g id="TxOut-2" data-name="TxOut" class="cls-2"><text class="cls-5" transform="translate(113.76 88)">TxOut</text></g></g><g id="Group-6-Copy-5"><rect id="Rectangle-5-6" data-name="Rectangle-5" class="cls-1" x="15.5" y="94.5" width="73" height="18"/><g id="Signature-2" data-name="Signature" class="cls-2"><text class="cls-5" transform="translate(34.27 106)">Signature</text></g></g></g><g id="Group-14"><g id="Group-6-Copy-6"><rect id="Rectangle-5-7" data-name="Rectangle-5" class="cls-6" x="15.5" y="155.5" width="73" height="18"/><g id="Txln-3" data-name="Txln" class="cls-2"><text class="cls-5" transform="translate(44.31 167)">Txln</text></g></g><g id="Group-6-Copy-7"><rect id="Rectangle-5-8" data-name="Rectangle-5" class="cls-6" x="88.5" y="155.5" width="73" height="18"/><g id="TxOut-3" data-name="TxOut" class="cls-2"><text class="cls-5" transform="translate(113.76 167)">TxOut</text></g></g><g id="Group-6-Copy-8"><rect id="Rectangle-5-9" data-name="Rectangle-5" class="cls-6" x="15.5" y="173.5" width="73" height="18"/><g id="Signature-3" data-name="Signature" class="cls-2"><text class="cls-5" transform="translate(34.27 185)">Signature</text></g></g></g></g></g></g></svg>