<svg xmlns="http://www.w3.org/2000/svg" viewBox="0 0 303 211"><defs><style>.cls-1,.cls-6{fill:none;}.cls-1{stroke:#a1a3a7;}.cls-2,.cls-3,.cls-4{isolation:isolate;}.cls-3,.cls-4{font-size:8px;}.cls-3,.cls-4,.cls-5{fill:#0cf;}.cls-3{font-family:PingFangSC-Medium-GBpc-EUC-H, PingFang SC;}.cls-4{font-family:PingFangSC-Regular-GBpc-EUC-H, PingFang SC;}.cls-6{stroke:#95b0ca;}</style></defs><title>资源 2</title><g id="图层_2" data-name="图层 2"><g id="图层_1-2" data-name="图层 1"><g id="隔离后"><rect id="Rectangle-3" class="cls-1" x="0.5" y="0.5" width="302" height="210"/><rect id="Rectangle-3-2" data-name="Rectangle-3" class="cls-1" x="10.5" y="23.5" width="165" height="158"/><g id="_1MB" data-name="1MB" class="cls-2"><text class="cls-3" transform="translate(85.53 162)">1MB</text></g><g id="_1MB-2" data-name="&gt;1MB" class="cls-2"><text class="cls-3" transform="translate(140.11 199)">&gt;1MB</text></g><g id="Group-6-Copy-6"><rect id="Rectangle-5" class="cls-1" x="20.5" y="30.5" width="73" height="18"/><g id="Txln" class="cls-2"><text class="cls-4" transform="translate(49.31 42)">Txln</text></g></g><g id="Group-6-Copy-9"><rect id="Rectangle-5-2" data-name="Rectangle-5" class="cls-1" x="20.5" y="58.5" width="73" height="18"/><g id="Txln-2" data-name="Txln" class="cls-2"><text class="cls-4" transform="translate(49.31 70)">Txln</text></g></g><g id="Group-6-Copy-11"><rect id="Rectangle-5-3" data-name="Rectangle-5" class="cls-1" x="20.5" y="118.5" width="73" height="18"/><g id="Txln-3" data-name="Txln" class="cls-2"><text class="cls-4" transform="translate(49.31 130)">Txln</text></g></g><g id="Group-6-Copy-7"><rect id="Rectangle-5-4" data-name="Rectangle-5" class="cls-1" x="93.5" y="30.5" width="73" height="18"/><g id="TxOut" class="cls-2"><text class="cls-4" transform="translate(118.76 42)">TxOut</text></g></g><g id="Group-6-Copy-10"><rect id="Rectangle-5-5" data-name="Rectangle-5" class="cls-1" x="93.5" y="58.5" width="73" height="18"/><g id="TxOut-2" data-name="TxOut" class="cls-2"><text class="cls-4" transform="translate(118.76 70)">TxOut</text></g></g><g id="Group-6-Copy-12"><rect id="Rectangle-5-6" data-name="Rectangle-5" class="cls-1" x="93.5" y="118.5" width="73" height="18"/><g id="TxOut-3" data-name="TxOut" class="cls-2"><text class="cls-4" transform="translate(118.76 130)">TxOut</text></g></g><g id="Group-15"><g id="Group"><polygon id="Path" class="cls-5" points="95.08 94.43 95.08 96.19 92.56 96.19 92.56 95.33 94.24 95.33 94.24 94.47 91.71 94.47 91.71 97.05 95.08 97.05 95.08 97.91 90.87 97.91 90.87 93.61 95.08 93.61 95.08 94.43"/><rect id="Rectangle" class="cls-5" x="93" y="98" width="1" height="1.5"/><rect id="Rectangle-Copy" class="cls-5" x="93.5" y="99" width="1" height="1"/></g><rect id="Rectangle-6" class="cls-1" x="20.5" y="87.5" width="146" height="18"/></g><g id="Group-6-Copy-13"><rect id="Rectangle-5-7" data-name="Rectangle-5" class="cls-1" x="202.5" y="118.5" width="73" height="18"/><g id="Signature" class="cls-2"><text class="cls-4" transform="translate(221.27 130)">Signature</text></g></g><g id="Group-6-Copy-14"><rect id="Rectangle-5-8" data-name="Rectangle-5" class="cls-1" x="202.5" y="58.5" width="73" height="18"/><g id="Signature-2" data-name="Signature" class="cls-2"><text class="cls-4" transform="translate(221.27 70)">Signature</text></g></g><g id="Group-6-Copy-16"><rect id="Rectangle-5-9" data-name="Rectangle-5" class="cls-6" x="202.5" y="87.5" width="73" height="18"/><g id="Group-2" data-name="Group"><polygon id="Path-2" data-name="Path" class="cls-5" points="241.08 94.43 241.08 96.19 238.56 96.19 238.56 95.33 240.24 95.33 240.24 94.47 237.71 94.47 237.71 97.05 241.08 97.05 241.08 97.91 236.87 97.91 236.87 93.61 241.08 93.61 241.08 94.43"/><rect id="Rectangle-2" data-name="Rectangle" class="cls-5" x="239" y="98" width="1" height="1.5"/><rect id="Rectangle-Copy-2" data-name="Rectangle-Copy" class="cls-5" x="239.5" y="99" width="1" height="1"/></g></g><g id="Group-6-Copy-15"><rect id="Rectangle-5-10" data-name="Rectangle-5" class="cls-6" x="202.5" y="30.5" width="73" height="18"/><g id="Signature-3" data-name="Signature" class="cls-2"><text class="cls-4" transform="translate(221.27 42)">Signature</text></g></g></g></g></g></svg>