<svg xmlns="http://www.w3.org/2000/svg" xmlns:xlink="http://www.w3.org/1999/xlink" viewBox="0 0 245.19 55.53"><defs><style>.cls-1{fill:#fff;}.cls-2{fill:#71777b;}.cls-3{mask:url(#mask);}.cls-4{fill:#38bde9;}</style><mask id="mask" x="20.71" y="0" width="55.02" height="55.53" maskUnits="userSpaceOnUse"><g id="mask-2"><polygon id="path-1" class="cls-1" points="48.22 0 75.73 0 75.73 55.53 48.22 55.53 20.71 55.53 20.71 0 48.22 0"/></g></mask></defs><title>资源 2</title><g id="图层_2" data-name="图层 2"><g id="图层_1-2" data-name="图层 1"><path id="UB.com" class="cls-2" d="M103.19,2.52h8.59V19.15a13.81,13.81,0,0,1-.77,4.66,10,10,0,0,1-2.41,3.85A9.87,9.87,0,0,1,105.15,30a17.45,17.45,0,0,1-6,.93,37.9,37.9,0,0,1-4.44-.29,11.51,11.51,0,0,1-4-1.13,10,10,0,0,1-3-2.4,8.82,8.82,0,0,1-1.84-3.22,16.75,16.75,0,0,1-.8-4.71V2.52h8.6v17a4.88,4.88,0,0,0,1.26,3.57,5.46,5.46,0,0,0,7,0,4.83,4.83,0,0,0,1.27-3.59Zm14.32,0h16.13a8.79,8.79,0,0,1,6.19,2A6.46,6.46,0,0,1,142,9.46a6.29,6.29,0,0,1-1.54,4.25,7,7,0,0,1-3,1.86,7.8,7.8,0,0,1,4.42,2.48,6.79,6.79,0,0,1,1.42,4.42,7.61,7.61,0,0,1-1,3.9,7.33,7.33,0,0,1-2.76,2.74,9,9,0,0,1-3.27.91,35.71,35.71,0,0,1-3.86.38H117.51Zm8.69,10.94H130a4.24,4.24,0,0,0,2.8-.7,2.51,2.51,0,0,0,.79-2,2.36,2.36,0,0,0-.79-1.9A4.2,4.2,0,0,0,130,8.17h-3.8Zm0,11h4.39a4.81,4.81,0,0,0,3.14-.79,2.65,2.65,0,0,0,.92-2.12,2.46,2.46,0,0,0-.91-2,5,5,0,0,0-3.16-.76H126.2Zm24.55.75a2.53,2.53,0,0,0-1.9.75,2.43,2.43,0,0,0-.79,1.85,2.61,2.61,0,0,0,.79,1.9,2.73,2.73,0,0,0,1.9.74,2.79,2.79,0,0,0,1.89-.74,2.45,2.45,0,0,0,.79-1.9,2.4,2.4,0,0,0-.79-1.85A2.51,2.51,0,0,0,150.75,25.16ZM174,22.51l7.36.84a10.17,10.17,0,0,1-2,4A9.22,9.22,0,0,1,175.78,30a14,14,0,0,1-5.49.93,20.14,20.14,0,0,1-5.35-.6,9.35,9.35,0,0,1-3.68-1.94,9.64,9.64,0,0,1-2.42-3.15A11.12,11.12,0,0,1,158,20.4,11.28,11.28,0,0,1,159,15.21a9.27,9.27,0,0,1,2.13-2.73,9.68,9.68,0,0,1,2.78-1.8,15.41,15.41,0,0,1,5.8-.93q4.95,0,7.54,1.77a9.33,9.33,0,0,1,3.64,5.17l-7.28,1a3.42,3.42,0,0,0-1.25-1.95,4,4,0,0,0-2.42-.65,3.93,3.93,0,0,0-3.11,1.37,6.3,6.3,0,0,0-1.19,4.18,5.4,5.4,0,0,0,1.18,3.78,3.86,3.86,0,0,0,3,1.3,4.13,4.13,0,0,0,2.56-.78A4.64,4.64,0,0,0,174,22.51Zm10-2.15a10.08,10.08,0,0,1,3.12-7.61,11.63,11.63,0,0,1,8.42-3q6.08,0,9.17,3.52a10.19,10.19,0,0,1,2.49,7A10.13,10.13,0,0,1,204,27.88q-3.09,3-8.55,3a12,12,0,0,1-7.87-2.47A9.93,9.93,0,0,1,183.93,20.36Zm7.76,0a6.12,6.12,0,0,0,1.09,4,3.59,3.59,0,0,0,5.5,0,6.36,6.36,0,0,0,1.07-4.09,6,6,0,0,0-1.08-3.91,3.38,3.38,0,0,0-2.68-1.29,3.52,3.52,0,0,0-2.8,1.31A6,6,0,0,0,191.69,20.34Zm19.22-10.13h7.23v2.94a10.06,10.06,0,0,1,3.15-2.62,8.63,8.63,0,0,1,3.83-.78,7.21,7.21,0,0,1,3.82.86,6.43,6.43,0,0,1,2.31,2.54,11.8,11.8,0,0,1,3.32-2.69,8.74,8.74,0,0,1,3.71-.71,6.65,6.65,0,0,1,5.08,1.93q1.83,1.94,1.83,6V30.4h-7.76V18.9a3.21,3.21,0,0,0-.54-2,2.34,2.34,0,0,0-1.94-1,2.74,2.74,0,0,0-2.2,1,4.85,4.85,0,0,0-.84,3.17V30.4h-7.76V19.28a7.12,7.12,0,0,0-.15-1.81,2.51,2.51,0,0,0-.86-1.23,2.26,2.26,0,0,0-1.42-.46,2.72,2.72,0,0,0-2.19,1,5.09,5.09,0,0,0-.86,3.31V30.4h-7.76Z"/><path id="UnitedBitcoin-Copy" class="cls-2" d="M85.82,38.5v9a5.63,5.63,0,0,0,1.6,4.34,7.48,7.48,0,0,0,8.88,0,5.62,5.62,0,0,0,1.59-4.32v-9H95.51v9a4,4,0,0,1-.87,2.78,3.83,3.83,0,0,1-2.79.89,3.74,3.74,0,0,1-2.78-.89,3.83,3.83,0,0,1-.88-2.78v-9Zm22.47,3.72a3.73,3.73,0,0,0-1.73.39,4.24,4.24,0,0,0-1.38,1.12V42.51h-2.31V53h2.31V46.69a2.9,2.9,0,0,1,.86-1.93,2.13,2.13,0,0,1,1.5-.61c1.58,0,2.38.86,2.38,2.58V53h2.31V46.53C112.23,43.64,110.91,42.22,108.29,42.22Zm10.28-4a1.57,1.57,0,0,0-1.11.42,1.43,1.43,0,0,0-.45,1.1,1.48,1.48,0,0,0,.45,1.12,1.66,1.66,0,0,0,2.23,0,1.46,1.46,0,0,0,.47-1.12,1.51,1.51,0,0,0-.45-1.1A1.62,1.62,0,0,0,118.57,38.22Zm-1.15,4.29V53h2.31V42.51Zm10.81-3.4-2.32,1v2.44H124v1.91h1.89v5.93a2.74,2.74,0,0,0,.61,1.93,2.54,2.54,0,0,0,2,.73h1.77V51.1h-1.38a.69.69,0,0,1-.53-.18.84.84,0,0,1-.16-.57V44.42h2.33V42.51h-2.33Zm10.87,3.11a4.68,4.68,0,0,1,4,1.75,7,7,0,0,1,1.26,4.43h-7.86a3.75,3.75,0,0,0,.79,2.23,2.46,2.46,0,0,0,1.93.78,2.9,2.9,0,0,0,1.73-.49,3.45,3.45,0,0,0,.93-1.28h2.32a4.77,4.77,0,0,1-1.46,2.46,5.25,5.25,0,0,1-3.5,1.2,4.92,4.92,0,0,1-3.72-1.45,5.6,5.6,0,0,1-1.46-4.1,5.67,5.67,0,0,1,1.38-3.92A4.56,4.56,0,0,1,139.1,42.22Zm.06,1.89a2.41,2.41,0,0,0-1.81.65,3.47,3.47,0,0,0-.85,1.89h5.4A2.51,2.51,0,0,0,139.16,44.11ZM156,38.22h2.31V53h-2.15V51.89A3.78,3.78,0,0,1,153,53.3a4.41,4.41,0,0,1-3.66-1.65,6.16,6.16,0,0,1-1.22-3.94,5.94,5.94,0,0,1,1.2-3.84,4.26,4.26,0,0,1,3.56-1.65A3.83,3.83,0,0,1,156,44Zm-2.58,5.87a2.61,2.61,0,0,0-2.3,1,4.33,4.33,0,0,0-.63,2.58,4.69,4.69,0,0,0,.59,2.62,2.49,2.49,0,0,0,2.26,1.1,2.42,2.42,0,0,0,2.09-1.08,4.51,4.51,0,0,0,.65-2.52v-.16a4.16,4.16,0,0,0-.81-2.66A2.3,2.3,0,0,0,153.39,44.09Zm9.87-5.59h6.65a5.09,5.09,0,0,1,3.39,1,3.3,3.3,0,0,1,1.14,2.62,3.58,3.58,0,0,1-.59,2.07,3.53,3.53,0,0,1-1.67,1.2,3.21,3.21,0,0,1,2.87,3.5,3.68,3.68,0,0,1-1.5,3.23,6.55,6.55,0,0,1-3.62.85h-6.67Zm2.38,2V44.6h3.64a3.55,3.55,0,0,0,2.15-.51,2,2,0,0,0,.63-1.64,1.77,1.77,0,0,0-.63-1.51,3.62,3.62,0,0,0-2.11-.49Zm0,6.1v4.51h3.94a4.33,4.33,0,0,0,2.12-.43,1.83,1.83,0,0,0,1-1.74A2.11,2.11,0,0,0,172,47.1a3.87,3.87,0,0,0-2.32-.55ZM181,38.22a1.57,1.57,0,0,0-1.11.42,1.43,1.43,0,0,0-.45,1.1,1.48,1.48,0,0,0,.45,1.12,1.66,1.66,0,0,0,2.23,0,1.46,1.46,0,0,0,.47-1.12,1.51,1.51,0,0,0-.45-1.1A1.62,1.62,0,0,0,181,38.22Zm-1.15,4.29V53h2.31V42.51Zm10.81-3.4-2.32,1v2.44h-1.89v1.91h1.89v5.93a2.74,2.74,0,0,0,.61,1.93,2.54,2.54,0,0,0,2,.73h1.77V51.1h-1.38a.69.69,0,0,1-.53-.18.84.84,0,0,1-.16-.57V44.42H193V42.51h-2.33Zm11.11,3.11a4.73,4.73,0,0,0-3.84,1.65,5.76,5.76,0,0,0-1.28,3.88,5.87,5.87,0,0,0,1.3,4,4.69,4.69,0,0,0,3.78,1.59,4.52,4.52,0,0,0,4.9-4.19h-2.3a2.59,2.59,0,0,1-4.59,1.34,4.44,4.44,0,0,1-.71-2.72,4.25,4.25,0,0,1,.73-2.66,2.37,2.37,0,0,1,2-1,2.71,2.71,0,0,1,1.69.49,2.42,2.42,0,0,1,.83,1.48h2.3A4.36,4.36,0,0,0,205,43.14,5.27,5.27,0,0,0,201.75,42.22Zm13.9,0a4.94,4.94,0,0,1,3.84,1.57,6.17,6.17,0,0,1,0,7.92,5.48,5.48,0,0,1-7.72,0,6.2,6.2,0,0,1,0-7.92A4.91,4.91,0,0,1,215.65,42.22Zm0,1.89a2.53,2.53,0,0,0-2.23,1.14,4.36,4.36,0,0,0-.67,2.52,4.29,4.29,0,0,0,.67,2.5,2.57,2.57,0,0,0,2.23,1.14,2.6,2.6,0,0,0,2.24-1.14,4.91,4.91,0,0,0,0-5A2.55,2.55,0,0,0,215.65,44.11Zm11.22-5.89a1.59,1.59,0,0,0-1.12.42,1.46,1.46,0,0,0-.44,1.1,1.51,1.51,0,0,0,.44,1.12,1.67,1.67,0,0,0,2.24,0,1.5,1.5,0,0,0,.47-1.12,1.55,1.55,0,0,0-.45-1.1A1.64,1.64,0,0,0,226.87,38.22Zm-1.16,4.29V53H228V42.51Zm12.95-.29a3.73,3.73,0,0,0-1.73.39,4,4,0,0,0-1.38,1.12V42.51h-2.32V53h2.32V46.69a2.89,2.89,0,0,1,.85-1.93,2.17,2.17,0,0,1,1.51-.61q2.37,0,2.37,2.58V53h2.32V46.53C242.6,43.64,241.28,42.22,238.66,42.22Z"/><g id="Page-1-Copy-4"><g id="Group-3"><g class="cls-3"><path id="Fill-1" class="cls-4" d="M62.17,26.21q13.36,0,13.55-13.11a14.45,14.45,0,0,0-.53-4.38Q72.6,0,57.77,0H27.53L25.61,11.93H38.87q7.68,0,8.8,3.76a5.62,5.62,0,0,1,.22,1.47q-.14,5.23-9.22,5.23H27.18l-1.88,9H38.54c4.91,0,8,1.48,8.84,4.45a2,2,0,0,1,.14,1c0,4.52-3.1,6.79-9.16,6.79H22.67l-2,11.9H56.85q18.23,0,18.5-14.66a22.92,22.92,0,0,0-.81-6.55q-2.42-8.12-12.37-8.11"/></g></g><polygon id="Fill-4" class="cls-4" points="16.13 11.4 7.36 11.4 9.03 3.45 17.8 3.45 16.13 11.4"/><polygon id="Fill-6" class="cls-4" points="11.3 31.25 0.71 31.25 2.85 21.11 13.43 21.11 11.3 31.25"/><polygon id="Fill-8" class="cls-4" points="9.09 51.64 0 51.64 1.85 42.84 10.94 42.84 9.09 51.64"/><polygon id="Fill-10" class="cls-4" points="13.01 31.26 10.23 43.63 22.74 43.63 25.55 31.26 13.01 31.26"/><polygon id="Fill-12" class="cls-4" points="15.66 11.19 13.26 21.65 24.04 21.65 26.42 11.19 15.66 11.19"/></g></g></g></svg>