<svg xmlns="http://www.w3.org/2000/svg" viewBox="0 0 412.66 57.67"><defs><style>.cls-1{fill:#fff;}.cls-2{fill:#38bde9;}</style></defs><title>资源 1</title><g id="图层_2" data-name="图层 2"><g id="图层_1-2" data-name="图层 1"><path id="UB.com" class="cls-1" d="M125.47.18h17.39v33.6a28.58,28.58,0,0,1-1.56,9.44A20.71,20.71,0,0,1,136.43,51a19.44,19.44,0,0,1-6.92,4.67,35.22,35.22,0,0,1-12.13,1.88,77.05,77.05,0,0,1-9-.57,23.8,23.8,0,0,1-8.09-2.28,20.6,20.6,0,0,1-6.06-4.88,17.8,17.8,0,0,1-3.7-6.49,34,34,0,0,1-1.62-9.54V.18h17.39V34.55a9.8,9.8,0,0,0,2.55,7.2,11,11,0,0,0,14.15,0,9.83,9.83,0,0,0,2.45-7.16Zm29,0H187a17.72,17.72,0,0,1,12.51,4,13.09,13.09,0,0,1,4.37,10.11,12.55,12.55,0,0,1-3.12,8.57,13.58,13.58,0,0,1-6.06,3.76,15.8,15.8,0,0,1,8.94,5,13.83,13.83,0,0,1,2.87,8.93,15.54,15.54,0,0,1-2,7.89,15.08,15.08,0,0,1-5.59,5.54,18.59,18.59,0,0,1-6.61,1.84,77.42,77.42,0,0,1-7.8.77H154.42ZM172,22.28h7.56a8.86,8.86,0,0,0,5.69-1.4,5.07,5.07,0,0,0,1.59-4A4.84,4.84,0,0,0,185.22,13a8.55,8.55,0,0,0-5.56-1.37H172Zm0,22.24h8.88a9.92,9.92,0,0,0,6.35-1.6A5.4,5.4,0,0,0,189,38.63a5,5,0,0,0-1.82-4,10.26,10.26,0,0,0-6.41-1.52H172ZM221.59,46a5.1,5.1,0,0,0-3.82,1.52,4.8,4.8,0,0,0-1.6,3.74,5.18,5.18,0,0,0,1.6,3.82,5.49,5.49,0,0,0,3.82,1.52,5.68,5.68,0,0,0,3.84-1.52,4.85,4.85,0,0,0,1.6-3.82,4.8,4.8,0,0,0-1.6-3.74,5.11,5.11,0,0,0-3.82-1.6Zm47-5.35,14.88,1.67a20.91,20.91,0,0,1-4,8.09,18.78,18.78,0,0,1-7.18,5.28,28,28,0,0,1-11.08,1.88,41.22,41.22,0,0,1-10.84-1.21,18.75,18.75,0,0,1-7.44-3.93A19.73,19.73,0,0,1,238,46.11a22.26,22.26,0,0,1-1.78-9.7,23,23,0,0,1,2.16-10.52,19.36,19.36,0,0,1,4.37-5.6,20.08,20.08,0,0,1,5.6-3.62,31,31,0,0,1,11.75-1.9c6.65,0,11.75,1.2,15.24,3.58a18.91,18.91,0,0,1,7.36,10.48l-14.74,2a6.67,6.67,0,0,0-2.5-4.05,8.08,8.08,0,0,0-4.92-1.33,7.92,7.92,0,0,0-6.29,2.79,12.7,12.7,0,0,0-2.38,8.43,11.11,11.11,0,0,0,2.36,7.67,7.91,7.91,0,0,0,6.07,2.6,8.43,8.43,0,0,0,5.18-1.57,9.44,9.44,0,0,0,3.09-4.8Zm20.22-4.35a20.46,20.46,0,0,1,6.31-15.41,23.59,23.59,0,0,1,17-6.07q12.25,0,18.54,7.12a20.63,20.63,0,0,1,5,14.16,20.54,20.54,0,0,1-6.25,15.44q-6.24,6.07-17.29,6.07a24.31,24.31,0,0,1-15.93-5,20,20,0,0,1-7.52-16.4Zm15.69,0a12.35,12.35,0,0,0,2.22,8.09,7,7,0,0,0,5.56,2.6,6.86,6.86,0,0,0,5.54-2.56A12.69,12.69,0,0,0,319.9,36a11.92,11.92,0,0,0-2.21-7.9,6.84,6.84,0,0,0-5.42-2.59,7,7,0,0,0-5.64,2.63,12.17,12.17,0,0,0-2.24,8.07Zm38.82-20.55H358v6a20.54,20.54,0,0,1,6.37-5.32,17.53,17.53,0,0,1,7.74-1.58,14.84,14.84,0,0,1,7.73,1.74,12.72,12.72,0,0,1,4.65,5.16,23.43,23.43,0,0,1,6.73-5.44,17.29,17.29,0,0,1,7.5-1.46A13.49,13.49,0,0,1,409,18.76q3.69,3.91,3.68,12.13V56.55H397V33.27a6.38,6.38,0,0,0-1.07-4A4.72,4.72,0,0,0,392,27.11a5.5,5.5,0,0,0-4.45,2,9.91,9.91,0,0,0-1.7,6.43v21H370.12V34a13.93,13.93,0,0,0-.3-3.64,4.93,4.93,0,0,0-1.72-2.42,4.58,4.58,0,0,0-2.89-1,5.53,5.53,0,0,0-4.41,2,10.37,10.37,0,0,0-1.74,6.69V56.55H343.37Z"/><g id="Page-1-Copy-4"><g id="Group-3"><path id="Fill-1" class="cls-2" d="M64.57,27.22q13.89,0,14.08-13.61a14.87,14.87,0,0,0-.55-4.55Q75.4,0,60,0H28.59l-2,12.4H40.37q8,0,9.15,3.89a6.08,6.08,0,0,1,.22,1.53q-.14,5.45-9.58,5.44H28.23l-1.95,9.35H40c5.1,0,8.26,1.55,9.18,4.63a2.14,2.14,0,0,1,.15,1c0,4.69-3.22,7-9.52,7H23.54l-2,12.35H59.05q18.93,0,19.22-15.22a23.74,23.74,0,0,0-.85-6.81q-2.51-8.42-12.85-8.42"/></g><polygon id="Fill-4" class="cls-2" points="16.76 11.84 7.65 11.84 9.38 3.58 18.49 3.58 16.76 11.84"/><polygon id="Fill-6" class="cls-2" points="11.73 32.46 0.74 32.46 2.96 21.93 13.95 21.93 11.73 32.46"/><polygon id="Fill-8" class="cls-2" points="9.44 53.64 0 53.64 1.92 44.49 11.36 44.49 9.44 53.64"/><polygon id="Fill-10" class="cls-2" points="13.51 32.47 10.63 45.31 23.62 45.31 26.54 32.47 13.51 32.47"/><polygon id="Fill-12" class="cls-2" points="16.26 11.62 13.77 22.49 24.97 22.49 27.44 11.62 16.26 11.62"/></g></g></g></svg>